<svg xmlns="http://www.w3.org/2000/svg" style="display: none;"><symbol id="icon-rice" viewBox="0 0 48 48"><title>rice</title><g class="nc-icon-wrapper"><path d="M14.874,44H33.126A21.985,21.985,0,0,0,46,24H2A21.985,21.985,0,0,0,14.874,44Z" fill="none" stroke="currentColor"></path> <line x1="37.814" y1="14.279" x2="46" y2="2" fill="none"></line> <line x1="30.43" y1="14" x2="34" y2="4" fill="none"></line> <path d="M41.659,18a5.981,5.981,0,0,0-10.047-2.066A5.924,5.924,0,0,0,23.059,12.8a5.967,5.967,0,0,0-10.7,1.236C12.236,14.029,12.122,14,12,14a6,6,0,0,0-5.659,4" fill="none"></path> <circle cx="8" cy="9" r="1" fill="currentColor" stroke="none"></circle> <circle cx="23" cy="6" r="1" fill="currentColor" stroke="none"></circle> <circle cx="18" cy="17" r="1" fill="currentColor" stroke="none"></circle></g></symbol></svg>